<?xml version="1.0" encoding="utf-8"?>
<svg height="256" preserveAspectRatio="xMidYMid" viewBox="0 0 256 256" width="256" xmlns="http://www.w3.org/2000/svg">
    <path d="M 210.932 133.805 C 210.932 149.157 198.486 161.29 183.135 161.29 L 127.464 161.29 L 121.998 167.224 L 121.998 200.564 L 127.464 205.795 L 183.135 205.795 C 223.065 206.106 255.687 174.301 255.998 134.371" fill="#4285f4"/>
    <path d="m71.8704 205.7957h55.593v-44.506h-55.593c-3.961-.001-7.797-.852-11.399-2.498l-7.887 2.42-22.409 22.253-1.952 7.574c12.567 9.489 27.9 14.825 43.647 14.757" fill="#34a853"/>
    <path d="M 71.89 61.426 C 31.959 61.664 -0.237 94.227 0.001 134.158 C 0.134 156.456 10.548 177.445 28.223 191.039 L 60.471 158.791 C 46.48 152.471 40.263 136.005 46.584 122.015 C 51.253 111.681 72.113 105.657 72.113 105.657 L 71.87 61.425 L 71.89 61.426 Z" fill="#fbbc05"/>

    <path d="M 148.892 61.481 Q 155.877 46.54 162.861 61.481 L 212.384 167.423 Q 219.368 182.364 205.4 182.364 L 106.353 182.364 Q 92.385 182.364 99.369 167.423 Z" 
          style="fill: rgb(255, 62, 48);" 
          transform="translate(-25 -22.5) rotate(100 155.877 118.187)" 
          id="triangle-1"/>
</svg>
