<?xml version="1.0" encoding="utf-8"?>
<svg height="206" preserveAspectRatio="xMidYMid" viewBox="0 0 256 206" width="256" xmlns="http://www.w3.org/2000/svg" xmlns:bx="https://boxy-svg.com"><defs><bx:export><bx:file format="svg"/></bx:export></defs><path d="M 144.704 46.745 C 151.112 48.751 157.243 51.967 162.756 56.429 L 170.252 56.819 L 192.505 34.566 L 193.988 25.196 C 186.03 17.96 177.151 12.305 167.743 8.202" fill="#ea4335"/><path d="m224.2048 73.9182c-5.115-18.836-15.616-35.769-30.217-48.722l-31.232 31.232c13.188 10.776 20.701 27.01 20.379 44.037v5.544c15.351 0 27.797 12.445 27.797 27.796 0 15.352-12.446 27.485-27.797 27.485h-55.671l-5.466 5.934v33.34l5.466 5.231h55.671c39.93.311 72.552-31.494 72.863-71.424.188-24.203-11.745-46.893-31.793-60.453" fill="#4285f4"/><path d="m71.8704 205.7957h55.593v-44.506h-55.593c-3.961-.001-7.797-.852-11.399-2.498l-7.887 2.42-22.409 22.253-1.952 7.574c12.567 9.489 27.9 14.825 43.647 14.757" fill="#34a853"/><path d="M 71.89 61.426 C 31.959 61.664 -0.237 94.227 0.001 134.158 C 0.134 156.456 10.548 177.445 28.223 191.039 L 60.471 158.791 C 46.48 152.471 40.263 136.005 46.584 122.015 C 51.253 111.681 72.113 105.657 72.113 105.657 L 71.87 61.425 L 71.89 61.426 Z" fill="#fbbc05"/><path d="M 128.911 48.895 Q 134.958 37.013 141.005 48.895 L 183.882 133.151 Q 189.929 145.033 177.835 145.033 L 92.081 145.033 Q 79.987 145.033 86.034 133.151 Z" bx:shape="triangle 79.987 37.013 109.942 108.02 0.5 0.11 1@084abde7" style="fill: rgb(251, 188, 5); transform-box: fill-box; transform-origin: 50% 50%;" transform="matrix(0, 1, -1, 0, -15.095646, -12.83746)" id="object-0"/></svg>